<svg width="24" height="24" viewBox="0 0 256 262" xmlns="http://www.w3.org/2000/svg">
  <g fill="none">
    <path d="M255.68 133.5c0-10.86-.96-21.26-2.76-31.3H130v59.22h70.62c-3.06 16.5-12.56 30.52-26.72 39.84v33.12h43.28c25.34-23.34 40-57.76 40-100.88z" fill="#4285F4"/>
    <path d="M130 262c35.1 0 64.56-11.62 86.08-31.6l-43.28-33.12c-12.02 8.08-27.38 12.9-42.8 12.9-32.88 0-60.76-22.2-70.74-52.12H15.16v32.8C36.8 234.58 80.76 262 130 262z" fill="#34A853"/>
    <path d="M59.26 157.98a78.6 78.6 0 010-51.98V73.2H15.16a130.23 130.23 0 000 115.6l44.1-30.82z" fill="#FBBC05"/>
    <path d="M130 51.9c18.98 0 36.02 6.52 49.4 19.28l37.04-36.14C194.56 12.86 165.1 0 130 0 80.76 0 36.8 27.42 15.16 73.2l44.1 32.8C69.24 74.1 97.12 51.9 130 51.9z" fill="#EA4335"/>
  </g>
</svg>
